<svg width="210" height="210" viewBox="0 0 210 210" fill="none" xmlns="http://www.w3.org/2000/svg">
<rect width="210" height="210" rx="105" fill="#5A6BF6"/>
<path d="M76.3067 98.5467C83.9867 113.64 96.36 125.96 111.453 133.693L123.187 121.96C124.627 120.52 126.76 120.04 128.627 120.68C134.6 122.653 141.053 123.72 147.667 123.72C150.6 123.72 153 126.12 153 129.053V147.667C153 150.6 150.6 153 147.667 153C97.5867 153 57 112.413 57 62.3333C57 59.4 59.4 57 62.3333 57H81C83.9333 57 86.3333 59.4 86.3333 62.3333C86.3333 69 87.4 75.4 89.3733 81.3733C89.96 83.24 89.5333 85.32 88.04 86.8133L76.3067 98.5467Z" fill="white"/>
</svg>
