<svg width="104" height="104" viewBox="0 0 104 104" fill="none" xmlns="http://www.w3.org/2000/svg">
<path d="M7.78667 16.8H88.928C96.2773 16.8 101.584 23.5733 99.568 30.3893L90.7467 60.256C89.3867 64.8427 85.0453 68 80.1067 68H31.264C26.32 68 21.9733 64.8373 20.6187 60.256L7.78667 16.8ZM7.78667 16.8L4 4M76 100C78.1217 100 80.1566 99.1571 81.6569 97.6569C83.1571 96.1566 84 94.1217 84 92C84 89.8783 83.1571 87.8434 81.6569 86.3432C80.1566 84.8429 78.1217 84 76 84C73.8783 84 71.8434 84.8429 70.3431 86.3432C68.8429 87.8434 68 89.8783 68 92C68 94.1217 68.8429 96.1566 70.3431 97.6569C71.8434 99.1571 73.8783 100 76 100ZM33.3333 100C35.4551 100 37.4899 99.1571 38.9902 97.6569C40.4905 96.1566 41.3333 94.1217 41.3333 92C41.3333 89.8783 40.4905 87.8434 38.9902 86.3432C37.4899 84.8429 35.4551 84 33.3333 84C31.2116 84 29.1768 84.8429 27.6765 86.3432C26.1762 87.8434 25.3333 89.8783 25.3333 92C25.3333 94.1217 26.1762 96.1566 27.6765 97.6569C29.1768 99.1571 31.2116 100 33.3333 100Z" stroke="#2E363E" stroke-width="8" stroke-linecap="round" stroke-linejoin="round"/>
</svg>
