<svg width="23" height="19" viewBox="0 0 23 19" fill="none" xmlns="http://www.w3.org/2000/svg">
<path d="M23 4.19784V15.4375C23 16.3462 22.6638 17.2206 22.0601 17.8817C21.4564 18.5428 20.6309 18.9408 19.7524 18.9941L19.55 19H3.45C2.57001 19 1.72326 18.6529 1.083 18.0295C0.442742 17.4061 0.0573764 16.5536 0.00575013 15.6465L0 15.4375V4.19784L10.8617 11.6755L10.9951 11.7539C11.1524 11.8332 11.325 11.8744 11.5 11.8744C11.675 11.8744 11.8476 11.8332 12.0048 11.7539L12.1382 11.6755L23 4.19784Z" fill="black"/>
<path d="M19.5499 0C20.7919 0 21.881 0.676874 22.4882 1.69456L11.4999 9.25892L0.511688 1.69456C0.800028 1.21097 1.19618 0.8056 1.6671 0.512266C2.13802 0.218932 2.67005 0.0461417 3.21879 0.00831245L3.44994 0H19.5499Z" fill="black"/>
</svg>
