<svg width="21" height="21" viewBox="0 0 21 21" fill="none" xmlns="http://www.w3.org/2000/svg">
<path d="M18.9424 14.3206L15.9731 13.9816C15.624 13.9405 15.2701 13.9792 14.938 14.0946C14.6059 14.21 14.3044 14.3992 14.0559 14.6479L11.9049 16.7989C8.58629 15.1111 5.88888 12.4137 4.20108 9.09502L6.36376 6.93232C6.86644 6.42964 7.11193 5.72823 7.0301 5.01512L6.69109 2.06918C6.62481 1.4989 6.35113 0.972907 5.92215 0.59135C5.49317 0.209793 4.93885 -0.000680672 4.36474 1.65381e-06H2.34233C1.02134 1.65381e-06 -0.077537 1.09889 0.00429437 2.41989C0.623875 12.4034 8.60828 20.3761 18.58 20.9957C19.901 21.0775 20.9999 19.9787 20.9999 18.6577V16.6352C21.0116 15.4545 20.1231 14.4609 18.9424 14.3206Z" fill="black"/>
</svg>
